<svg xmlns="http://www.w3.org/2000/svg" xmlns:xlink="http://www.w3.org/1999/xlink" width="600" zoomAndPan="magnify" viewBox="0 0 450 449.999984" height="600" preserveAspectRatio="xMidYMid meet" version="1.0"><defs><clipPath id="37cd29c5b3"><path d="M 35 0 L 431.71875 0 L 431.71875 450 L 35 450 Z M 35 0 " clip-rule="nonzero"/></clipPath><clipPath id="efd534743e"><path d="M 331 229 L 361.351562 229 L 361.351562 251.140625 L 331 251.140625 Z M 331 229 " clip-rule="nonzero"/></clipPath><clipPath id="b44db7ccae"><path d="M 325 216.640625 L 353 216.640625 L 353 234 L 325 234 Z M 325 216.640625 " clip-rule="nonzero"/></clipPath></defs><g clip-path="url(#37cd29c5b3)"><path fill="#ffffff" d="M 223.617188 235.730469 L 196.441406 235.730469 L 196.441406 208.558594 C 196.441406 204.550781 193.191406 201.300781 189.183594 201.300781 L 154.019531 201.300781 C 150.011719 201.300781 146.761719 204.550781 146.761719 208.558594 L 146.761719 235.730469 L 119.589844 235.730469 C 115.582031 235.730469 112.332031 238.980469 112.332031 242.988281 L 112.332031 278.152344 C 112.332031 282.160156 115.582031 285.410156 119.589844 285.410156 L 146.761719 285.410156 L 146.761719 312.582031 C 146.761719 316.589844 150.011719 319.839844 154.019531 319.839844 L 189.183594 319.839844 C 193.191406 319.839844 196.441406 316.589844 196.441406 312.582031 L 196.441406 285.410156 L 223.617188 285.410156 C 227.625 285.410156 230.875 282.160156 230.875 278.152344 L 230.875 242.988281 C 230.875 238.980469 227.625 235.730469 223.617188 235.730469 Z M 216.359375 270.894531 L 189.183594 270.894531 C 185.175781 270.894531 181.925781 274.144531 181.925781 278.152344 L 181.925781 305.324219 L 161.28125 305.324219 L 161.28125 278.152344 C 161.28125 274.144531 158.03125 270.894531 154.019531 270.894531 L 126.847656 270.894531 L 126.847656 250.246094 L 154.019531 250.246094 C 158.03125 250.246094 161.28125 246.996094 161.28125 242.988281 L 161.28125 215.816406 L 181.925781 215.816406 L 181.925781 242.988281 C 181.925781 246.996094 185.175781 250.246094 189.183594 250.246094 L 216.359375 250.246094 Z M 405.980469 346.703125 C 407.65625 343.328125 409.015625 339.765625 410.011719 336.039062 C 413.914062 321.476562 411.9375 306.3125 404.445312 293.335938 C 396.964844 280.378906 384.816406 271.089844 370.242188 267.183594 C 355.667969 263.277344 340.507812 265.25 327.546875 272.730469 L 308.1875 283.910156 L 308.1875 160.21875 C 308.1875 138.035156 302.070312 120.53125 288.945312 105.132812 C 277.480469 91.6875 261.90625 81.425781 245.417969 70.5625 C 242.179688 68.429688 238.898438 66.269531 235.597656 64.050781 C 240.972656 61.644531 244.730469 56.257812 244.730469 50 L 244.730469 15.390625 C 244.730469 6.902344 237.828125 0 229.339844 0 L 113.867188 0 C 105.378906 0 98.476562 6.902344 98.476562 15.390625 L 98.476562 50 C 98.476562 56.257812 102.234375 61.644531 107.609375 64.046875 C 104.304688 66.269531 101.027344 68.429688 97.789062 70.5625 C 81.300781 81.425781 65.726562 91.6875 54.261719 105.132812 C 41.132812 120.527344 35.019531 138.035156 35.019531 160.21875 L 35.019531 372.332031 C 35.019531 404.816406 61.445312 431.242188 93.929688 431.242188 L 188.5625 431.242188 C 195.777344 439.320312 205.21875 445.15625 215.988281 448.042969 C 220.886719 449.351562 225.84375 450 230.765625 450 C 230.839844 450 375.09375 450 375.09375 450 C 406.132812 450 431.386719 424.746094 431.386719 393.703125 C 431.386719 374.75 421.628906 357.050781 405.980469 346.703125 Z M 320.292969 390.164062 L 306.789062 366.777344 L 334.230469 382.117188 Z M 348.867188 373.667969 L 292.613281 342.222656 L 280.976562 322.066406 L 360.878906 366.730469 Z M 376.585938 357.664062 L 375.515625 358.28125 L 290.609375 310.820312 L 302.621094 303.882812 L 385.839844 350.402344 C 383.144531 353.214844 380.042969 355.667969 376.585938 357.664062 Z M 397.125 326.429688 C 396.886719 328.382812 396.511719 330.339844 395.992188 332.28125 C 395.4375 334.347656 394.734375 336.351562 393.898438 338.273438 L 317.257812 295.433594 L 329.273438 288.5 Z M 366.488281 281.207031 C 377.316406 284.105469 386.332031 290.992188 391.875 300.59375 C 393.410156 303.25 394.621094 306.039062 395.523438 308.902344 L 345.554688 280.96875 C 352.339844 279.285156 359.5 279.332031 366.488281 281.207031 Z M 202.394531 344.988281 C 200.152344 346.28125 198.046875 347.71875 196.054688 349.261719 L 49.535156 349.261719 L 49.535156 172.320312 L 293.671875 172.320312 L 293.671875 292.289062 Z M 112.992188 15.390625 C 112.992188 14.921875 113.398438 14.515625 113.867188 14.515625 L 229.339844 14.515625 C 229.808594 14.515625 230.214844 14.921875 230.214844 15.390625 L 230.214844 50 C 230.214844 50.464844 229.808594 50.875 229.339844 50.875 L 113.867188 50.875 C 113.398438 50.875 112.992188 50.464844 112.992188 50 Z M 105.777344 82.683594 C 113.957031 77.292969 122.398438 71.722656 130.980469 65.390625 L 212.222656 65.390625 C 220.804688 71.722656 229.25 77.292969 237.429688 82.683594 C 269.421875 103.757812 292.695312 119.121094 293.628906 157.804688 L 49.582031 157.804688 C 50.511719 119.121094 73.785156 103.757812 105.777344 82.683594 Z M 49.535156 372.332031 L 49.535156 363.777344 L 182.90625 363.777344 C 173.15625 379.335938 171.300781 399.210938 179.152344 416.726562 L 93.933594 416.726562 C 69.453125 416.726562 49.535156 396.8125 49.535156 372.332031 Z M 219.75 434.019531 C 208.917969 431.117188 199.902344 424.234375 194.359375 414.628906 C 182.839844 394.679688 189.699219 369.078125 209.652344 357.558594 L 265.941406 325.0625 L 307.722656 397.421875 L 251.429688 429.921875 C 241.828125 435.464844 230.578125 436.921875 219.75 434.019531 Z M 295.578125 421.195312 L 295.578125 435.480469 L 270.832031 435.480469 Z M 375.09375 435.480469 L 310.09375 435.480469 L 310.09375 412.8125 L 383.839844 370.234375 C 389.191406 367.148438 393.898438 363.257812 397.875 358.746094 C 409.570312 366.421875 416.871094 379.597656 416.871094 393.703125 C 416.871094 416.742188 398.128906 435.480469 375.09375 435.480469 Z M 375.09375 435.480469 " fill-opacity="1" fill-rule="nonzero"/></g><g clip-path="url(#efd534743e)"><path fill="#ffffff" d="M 331.984375 247.703125 C 332.234375 248.253906 332.558594 248.757812 332.957031 249.214844 C 333.351562 249.671875 333.804688 250.0625 334.316406 250.390625 C 334.824219 250.71875 335.371094 250.964844 335.949219 251.136719 C 336.53125 251.308594 337.125 251.390625 337.730469 251.390625 C 338.640625 251.390625 339.507812 251.203125 340.335938 250.824219 L 357.839844 242.851562 C 358.21875 242.679688 358.574219 242.472656 358.910156 242.230469 C 359.246094 241.984375 359.554688 241.714844 359.839844 241.410156 C 360.121094 241.105469 360.371094 240.777344 360.589844 240.425781 C 360.804688 240.074219 360.988281 239.703125 361.132812 239.3125 C 361.277344 238.925781 361.382812 238.527344 361.449219 238.117188 C 361.511719 237.707031 361.539062 237.296875 361.523438 236.882812 C 361.507812 236.46875 361.453125 236.058594 361.355469 235.65625 C 361.261719 235.253906 361.125 234.863281 360.953125 234.488281 L 360.570312 233.652344 C 360.398438 233.277344 360.191406 232.917969 359.949219 232.582031 C 359.710938 232.246094 359.4375 231.9375 359.132812 231.65625 C 358.832031 231.371094 358.503906 231.121094 358.152344 230.902344 C 357.800781 230.6875 357.429688 230.503906 357.042969 230.359375 C 356.652344 230.214844 356.253906 230.109375 355.847656 230.042969 C 355.4375 229.976562 355.027344 229.949219 354.613281 229.964844 C 354.199219 229.976562 353.789062 230.03125 353.386719 230.128906 C 352.984375 230.222656 352.59375 230.355469 352.214844 230.527344 L 334.722656 238.507812 C 334.34375 238.679688 333.988281 238.886719 333.652344 239.128906 C 333.316406 239.371094 333.007812 239.644531 332.726562 239.945312 C 332.441406 240.25 332.191406 240.578125 331.976562 240.929688 C 331.757812 241.28125 331.574219 241.652344 331.429688 242.039062 C 331.285156 242.425781 331.179688 242.824219 331.113281 243.234375 C 331.046875 243.644531 331.023438 244.054688 331.035156 244.46875 C 331.050781 244.882812 331.105469 245.289062 331.199219 245.695312 C 331.296875 246.097656 331.429688 246.488281 331.601562 246.863281 Z M 352.964844 232.175781 C 353.554688 231.90625 354.171875 231.769531 354.820312 231.769531 C 355.367188 231.773438 355.898438 231.871094 356.410156 232.0625 C 357.574219 232.492188 358.414062 233.273438 358.933594 234.40625 L 359.316406 235.242188 C 359.4375 235.511719 359.53125 235.792969 359.597656 236.082031 C 359.667969 236.371094 359.703125 236.660156 359.714844 236.957031 C 359.722656 237.253906 359.703125 237.546875 359.65625 237.839844 C 359.609375 238.132812 359.53125 238.417969 359.425781 238.695312 C 359.324219 238.972656 359.191406 239.234375 359.035156 239.488281 C 358.878906 239.738281 358.699219 239.972656 358.496094 240.1875 C 358.292969 240.402344 358.070312 240.597656 357.828125 240.769531 C 357.589844 240.941406 357.332031 241.089844 357.0625 241.210938 L 350.386719 244.261719 C 350.65625 242.753906 350.523438 241.285156 349.988281 239.855469 C 349.636719 238.890625 349.128906 238.015625 348.472656 237.230469 C 347.8125 236.445312 347.039062 235.792969 346.152344 235.277344 Z M 333.144531 242.675781 C 333.574219 241.503906 334.351562 240.660156 335.488281 240.148438 L 343.953125 236.289062 C 344.964844 236.605469 345.855469 237.132812 346.617188 237.871094 C 347.382812 238.609375 347.941406 239.480469 348.296875 240.480469 C 348.582031 241.25 348.71875 242.046875 348.710938 242.867188 C 348.703125 243.6875 348.546875 244.476562 348.25 245.242188 L 339.585938 249.183594 C 339.316406 249.304688 339.039062 249.402344 338.75 249.46875 C 338.464844 249.535156 338.171875 249.574219 337.878906 249.585938 C 337.582031 249.59375 337.289062 249.578125 336.996094 249.527344 C 336.703125 249.480469 336.421875 249.40625 336.144531 249.300781 C 335.867188 249.199219 335.601562 249.070312 335.351562 248.914062 C 335.101562 248.757812 334.867188 248.582031 334.648438 248.378906 C 334.433594 248.175781 334.238281 247.957031 334.066406 247.714844 C 333.894531 247.476562 333.746094 247.222656 333.625 246.953125 L 333.242188 246.117188 C 332.722656 244.984375 332.6875 243.835938 333.128906 242.675781 Z M 333.144531 242.675781 " fill-opacity="1" fill-rule="nonzero"/></g><path fill="#ffffff" d="M 337.835938 243.539062 L 337.863281 243.539062 C 338.113281 243.53125 338.328125 243.4375 338.496094 243.25 C 338.667969 243.066406 338.75 242.847656 338.734375 242.59375 L 338.734375 241.867188 L 344.410156 239.285156 C 344.636719 239.179688 344.792969 239.011719 344.878906 238.777344 C 344.96875 238.546875 344.960938 238.316406 344.855469 238.089844 C 344.753906 237.863281 344.585938 237.707031 344.351562 237.621094 C 344.117188 237.53125 343.890625 237.539062 343.664062 237.644531 L 337.449219 240.476562 C 337.085938 240.640625 336.910156 240.921875 336.921875 241.320312 L 336.957031 242.644531 C 336.957031 242.886719 337.042969 243.09375 337.214844 243.269531 C 337.382812 243.445312 337.589844 243.535156 337.835938 243.539062 Z M 337.835938 243.539062 " fill-opacity="1" fill-rule="nonzero"/><path fill="#ffffff" d="M 337.097656 247.226562 C 337.34375 247.226562 337.558594 247.140625 337.734375 246.964844 C 337.910156 246.789062 337.996094 246.578125 337.996094 246.328125 L 337.996094 244.871094 C 337.996094 244.625 337.910156 244.410156 337.734375 244.234375 C 337.558594 244.058594 337.34375 243.972656 337.097656 243.972656 C 336.847656 243.972656 336.636719 244.058594 336.460938 244.234375 C 336.285156 244.410156 336.195312 244.625 336.195312 244.871094 L 336.195312 246.328125 C 336.195312 246.578125 336.285156 246.789062 336.460938 246.964844 C 336.636719 247.140625 336.847656 247.226562 337.097656 247.226562 Z M 337.097656 247.226562 " fill-opacity="1" fill-rule="nonzero"/><g clip-path="url(#b44db7ccae)"><path fill="#ffffff" d="M 351.773438 229.789062 L 352.992188 228.4375 C 352.679688 228.15625 352.347656 227.910156 351.988281 227.699219 L 342.976562 222.324219 L 335.449219 217.863281 C 335.089844 217.652344 334.71875 217.476562 334.328125 217.339844 C 333.9375 217.199219 333.535156 217.101562 333.125 217.042969 C 332.714844 216.984375 332.304688 216.964844 331.890625 216.988281 C 331.476562 217.011719 331.070312 217.074219 330.667969 217.175781 C 330.265625 217.28125 329.878906 217.421875 329.503906 217.597656 C 329.132812 217.777344 328.777344 217.992188 328.449219 218.242188 C 328.117188 218.488281 327.8125 218.769531 327.535156 219.074219 C 327.257812 219.382812 327.015625 219.71875 326.804688 220.074219 L 326.355469 220.867188 C 326.144531 221.222656 325.96875 221.59375 325.832031 221.980469 C 325.695312 222.371094 325.597656 222.769531 325.535156 223.175781 C 325.476562 223.585938 325.457031 223.996094 325.480469 224.40625 C 325.5 224.820312 325.5625 225.222656 325.660156 225.625 C 325.761719 226.023438 325.902344 226.410156 326.078125 226.785156 C 326.253906 227.15625 326.464844 227.507812 326.710938 227.839844 C 326.957031 228.171875 327.230469 228.476562 327.535156 228.753906 C 327.84375 229.03125 328.171875 229.273438 328.523438 229.488281 L 335.992188 233.933594 L 336.914062 232.386719 L 329.464844 227.9375 C 329.214844 227.785156 328.976562 227.609375 328.757812 227.410156 C 328.539062 227.214844 328.34375 226.996094 328.164062 226.757812 C 327.988281 226.519531 327.839844 226.269531 327.710938 226.003906 C 327.585938 225.734375 327.484375 225.457031 327.414062 225.171875 C 327.339844 224.886719 327.296875 224.59375 327.28125 224.300781 C 327.265625 224.003906 327.277344 223.710938 327.320312 223.417969 C 327.359375 223.128906 327.429688 222.839844 327.527344 222.5625 C 327.625 222.285156 327.75 222.015625 327.898438 221.761719 L 328.347656 220.972656 C 328.5 220.722656 328.675781 220.484375 328.875 220.265625 C 329.074219 220.046875 329.292969 219.851562 329.527344 219.675781 C 329.765625 219.496094 330.019531 219.347656 330.285156 219.21875 C 330.550781 219.09375 330.828125 218.992188 331.113281 218.921875 C 331.402344 218.847656 331.691406 218.804688 331.984375 218.789062 C 332.28125 218.773438 332.574219 218.785156 332.867188 218.828125 C 333.160156 218.867188 333.445312 218.9375 333.722656 219.035156 C 334.003906 219.132812 334.269531 219.257812 334.523438 219.40625 L 340.335938 222.871094 C 339.363281 223.476562 338.558594 224.253906 337.921875 225.203125 C 336.570312 227.164062 336.097656 229.585938 336.640625 231.507812 L 338.375 231.019531 C 337.972656 229.605469 338.375 227.710938 339.40625 226.203125 C 340.09375 225.167969 341.015625 224.417969 342.167969 223.953125 L 351.039062 229.234375 C 351.304688 229.394531 351.546875 229.578125 351.773438 229.789062 Z M 351.773438 229.789062 " fill-opacity="1" fill-rule="nonzero"/></g><path fill="#ffffff" d="M 342.542969 227.277344 L 343.417969 225.703125 L 349.769531 229.222656 L 348.894531 230.800781 Z M 342.542969 227.277344 " fill-opacity="1" fill-rule="nonzero"/></svg>