<svg xmlns="http://www.w3.org/2000/svg" xmlns:xlink="http://www.w3.org/1999/xlink" width="600" zoomAndPan="magnify" viewBox="0 0 450 112.499997" height="150" preserveAspectRatio="xMidYMid meet" version="1.0"><defs><g/><clipPath id="07a6c9ffc8"><path d="M 22 47 L 87.992188 47 L 87.992188 92.859375 L 22 92.859375 Z M 22 47 " clip-rule="nonzero"/></clipPath></defs><g clip-path="url(#07a6c9ffc8)"><path fill="#ffffff" d="M 24.550781 85.023438 C 25.085938 86.195312 25.773438 87.269531 26.617188 88.242188 C 27.460938 89.214844 28.425781 90.050781 29.511719 90.746094 C 30.59375 91.441406 31.753906 91.972656 32.992188 92.332031 C 34.226562 92.695312 35.488281 92.875 36.777344 92.871094 C 38.710938 92.875 40.558594 92.472656 42.316406 91.664062 L 79.566406 74.703125 C 80.367188 74.335938 81.125 73.894531 81.839844 73.378906 C 82.554688 72.863281 83.214844 72.285156 83.8125 71.636719 C 84.414062 70.992188 84.945312 70.292969 85.410156 69.542969 C 85.871094 68.792969 86.257812 68.003906 86.566406 67.179688 C 86.871094 66.351562 87.097656 65.503906 87.238281 64.632812 C 87.378906 63.761719 87.429688 62.886719 87.398438 62.003906 C 87.367188 61.125 87.246094 60.253906 87.042969 59.398438 C 86.839844 58.539062 86.554688 57.710938 86.1875 56.90625 L 85.371094 55.136719 C 85.007812 54.332031 84.566406 53.574219 84.054688 52.859375 C 83.539062 52.144531 82.957031 51.484375 82.316406 50.882812 C 81.671875 50.28125 80.972656 49.75 80.222656 49.285156 C 79.476562 48.820312 78.6875 48.4375 77.863281 48.125 C 77.035156 47.816406 76.1875 47.59375 75.320312 47.449219 C 74.449219 47.308594 73.574219 47.253906 72.695312 47.285156 C 71.8125 47.316406 70.945312 47.429688 70.085938 47.632812 C 69.226562 47.835938 68.398438 48.121094 67.597656 48.484375 L 30.375 65.464844 C 29.574219 65.832031 28.816406 66.269531 28.101562 66.785156 C 27.386719 67.300781 26.730469 67.878906 26.128906 68.523438 C 25.527344 69.167969 24.996094 69.867188 24.53125 70.617188 C 24.070312 71.363281 23.683594 72.152344 23.375 72.976562 C 23.066406 73.804688 22.839844 74.652344 22.699219 75.519531 C 22.558594 76.390625 22.503906 77.265625 22.535156 78.144531 C 22.566406 79.027344 22.683594 79.894531 22.882812 80.753906 C 23.085938 81.609375 23.371094 82.441406 23.734375 83.242188 Z M 69.1875 51.992188 C 70.441406 51.417969 71.757812 51.128906 73.136719 51.128906 C 74.300781 51.132812 75.425781 51.339844 76.519531 51.753906 C 77.707031 52.191406 78.769531 52.84375 79.699219 53.707031 C 80.628906 54.570312 81.355469 55.582031 81.882812 56.734375 L 82.699219 58.519531 C 82.960938 59.09375 83.160156 59.6875 83.304688 60.300781 C 83.449219 60.914062 83.527344 61.535156 83.550781 62.164062 C 83.570312 62.796875 83.527344 63.421875 83.425781 64.042969 C 83.324219 64.664062 83.160156 65.269531 82.9375 65.859375 C 82.714844 66.449219 82.4375 67.011719 82.105469 67.546875 C 81.769531 68.082031 81.386719 68.578125 80.957031 69.039062 C 80.523438 69.5 80.050781 69.910156 79.539062 70.277344 C 79.027344 70.644531 78.480469 70.957031 77.90625 71.214844 L 63.707031 77.703125 C 64.277344 74.5 63.992188 71.375 62.851562 68.332031 C 62.105469 66.28125 61.03125 64.417969 59.628906 62.746094 C 58.230469 61.074219 56.585938 59.691406 54.699219 58.59375 Z M 27.023438 74.328125 C 27.457031 73.136719 28.109375 72.070312 28.972656 71.136719 C 29.835938 70.207031 30.847656 69.476562 32.007812 68.953125 L 50.011719 60.742188 C 51.074219 61.074219 52.085938 61.527344 53.046875 62.097656 C 54.003906 62.664062 54.886719 63.335938 55.6875 64.109375 C 56.492188 64.886719 57.191406 65.742188 57.796875 66.679688 C 58.398438 67.617188 58.886719 68.613281 59.257812 69.664062 C 59.863281 71.300781 60.15625 72.992188 60.136719 74.738281 C 60.117188 76.480469 59.789062 78.167969 59.152344 79.792969 L 40.726562 88.175781 C 40.152344 88.4375 39.5625 88.640625 38.949219 88.78125 C 38.335938 88.925781 37.71875 89.011719 37.089844 89.03125 C 36.460938 89.054688 35.835938 89.015625 35.214844 88.914062 C 34.59375 88.8125 33.988281 88.652344 33.402344 88.429688 C 32.8125 88.210938 32.25 87.933594 31.714844 87.605469 C 31.179688 87.273438 30.683594 86.894531 30.222656 86.464844 C 29.761719 86.035156 29.347656 85.566406 28.980469 85.054688 C 28.613281 84.546875 28.300781 84.003906 28.039062 83.433594 L 27.222656 81.652344 C 26.695312 80.496094 26.414062 79.285156 26.371094 78.015625 C 26.328125 76.746094 26.535156 75.515625 26.984375 74.328125 Z M 27.023438 74.328125 " fill-opacity="1" fill-rule="nonzero"/></g><path fill="#ffffff" d="M 37 76.167969 L 37.054688 76.167969 C 37.3125 76.160156 37.558594 76.105469 37.792969 76 C 38.027344 75.890625 38.234375 75.742188 38.410156 75.554688 C 38.582031 75.363281 38.714844 75.148438 38.804688 74.90625 C 38.890625 74.664062 38.929688 74.414062 38.914062 74.15625 L 38.914062 72.613281 L 50.988281 67.113281 C 51.21875 67.007812 51.421875 66.863281 51.597656 66.675781 C 51.769531 66.492188 51.902344 66.277344 51.988281 66.039062 C 52.078125 65.800781 52.117188 65.554688 52.109375 65.300781 C 52.101562 65.046875 52.042969 64.804688 51.9375 64.574219 C 51.832031 64.34375 51.6875 64.140625 51.5 63.96875 C 51.316406 63.792969 51.101562 63.664062 50.863281 63.574219 C 50.625 63.484375 50.378906 63.445312 50.125 63.453125 C 49.871094 63.464844 49.628906 63.519531 49.398438 63.625 L 36.175781 69.652344 C 35.824219 69.8125 35.546875 70.054688 35.34375 70.378906 C 35.140625 70.707031 35.042969 71.0625 35.054688 71.445312 L 35.128906 74.261719 C 35.132812 74.511719 35.179688 74.75 35.273438 74.980469 C 35.367188 75.210938 35.503906 75.417969 35.675781 75.59375 C 35.851562 75.773438 36.054688 75.910156 36.28125 76.011719 C 36.511719 76.109375 36.75 76.164062 37 76.167969 Z M 37 76.167969 " fill-opacity="1" fill-rule="nonzero"/><path fill="#ffffff" d="M 35.425781 84.019531 C 35.679688 84.019531 35.925781 83.96875 36.160156 83.871094 C 36.394531 83.773438 36.601562 83.636719 36.78125 83.457031 C 36.960938 83.277344 37.101562 83.070312 37.199219 82.835938 C 37.296875 82.601562 37.34375 82.355469 37.34375 82.101562 L 37.34375 79.007812 C 37.34375 78.75 37.296875 78.507812 37.199219 78.273438 C 37.101562 78.039062 36.960938 77.832031 36.78125 77.652344 C 36.601562 77.472656 36.394531 77.332031 36.160156 77.234375 C 35.925781 77.136719 35.679688 77.089844 35.425781 77.089844 C 35.171875 77.089844 34.929688 77.136719 34.695312 77.234375 C 34.457031 77.332031 34.25 77.472656 34.070312 77.652344 C 33.890625 77.832031 33.753906 78.039062 33.65625 78.273438 C 33.558594 78.507812 33.511719 78.75 33.511719 79.007812 L 33.511719 82.101562 C 33.511719 82.355469 33.558594 82.601562 33.65625 82.835938 C 33.753906 83.070312 33.890625 83.277344 34.070312 83.457031 C 34.25 83.636719 34.457031 83.773438 34.695312 83.871094 C 34.929688 83.96875 35.171875 84.019531 35.425781 84.019531 Z M 35.425781 84.019531 " fill-opacity="1" fill-rule="nonzero"/><path fill="#ffffff" d="M 66.65625 46.914062 L 69.246094 44.039062 C 68.585938 43.441406 67.871094 42.917969 67.109375 42.46875 L 47.941406 31.035156 L 31.917969 21.539062 C 31.160156 21.089844 30.367188 20.71875 29.535156 20.425781 C 28.703125 20.132812 27.851562 19.921875 26.980469 19.796875 C 26.109375 19.671875 25.230469 19.632812 24.351562 19.679688 C 23.472656 19.726562 22.605469 19.863281 21.75 20.078125 C 20.894531 20.296875 20.070312 20.597656 19.277344 20.980469 C 18.480469 21.359375 17.730469 21.816406 17.027344 22.34375 C 16.320312 22.871094 15.675781 23.464844 15.085938 24.121094 C 14.5 24.777344 13.980469 25.484375 13.53125 26.242188 L 12.570312 27.929688 C 12.125 28.683594 11.753906 29.476562 11.460938 30.300781 C 11.167969 31.128906 10.960938 31.976562 10.832031 32.847656 C 10.707031 33.714844 10.667969 34.585938 10.710938 35.460938 C 10.757812 36.339844 10.886719 37.203125 11.101562 38.054688 C 11.3125 38.902344 11.609375 39.726562 11.984375 40.519531 C 12.359375 41.3125 12.808594 42.0625 13.332031 42.765625 C 13.855469 43.46875 14.441406 44.117188 15.089844 44.707031 C 15.738281 45.296875 16.4375 45.820312 17.191406 46.269531 L 33.078125 55.730469 L 35.042969 52.441406 L 19.195312 42.976562 C 18.65625 42.652344 18.152344 42.277344 17.6875 41.855469 C 17.222656 41.433594 16.800781 40.96875 16.425781 40.464844 C 16.050781 39.960938 15.730469 39.425781 15.460938 38.855469 C 15.191406 38.289062 14.980469 37.699219 14.824219 37.09375 C 14.667969 36.484375 14.574219 35.863281 14.542969 35.238281 C 14.507812 34.609375 14.535156 33.984375 14.625 33.363281 C 14.714844 32.738281 14.863281 32.132812 15.070312 31.539062 C 15.277344 30.945312 15.539062 30.378906 15.859375 29.835938 L 16.816406 28.160156 C 17.140625 27.621094 17.515625 27.121094 17.9375 26.652344 C 18.359375 26.1875 18.824219 25.769531 19.328125 25.394531 C 19.832031 25.019531 20.367188 24.695312 20.933594 24.425781 C 21.503906 24.15625 22.089844 23.945312 22.699219 23.789062 C 23.308594 23.636719 23.929688 23.542969 24.554688 23.507812 C 25.183594 23.472656 25.808594 23.5 26.429688 23.589844 C 27.050781 23.679688 27.660156 23.828125 28.253906 24.035156 C 28.847656 24.242188 29.414062 24.507812 29.957031 24.824219 L 42.316406 32.195312 C 40.25 33.480469 38.539062 35.136719 37.179688 37.15625 C 34.304688 41.328125 33.300781 46.480469 34.460938 50.574219 L 38.148438 49.53125 C 37.296875 46.519531 38.148438 42.496094 40.34375 39.285156 C 41.804688 37.078125 43.761719 35.480469 46.21875 34.496094 L 65.09375 45.734375 C 65.65625 46.074219 66.175781 46.46875 66.65625 46.914062 Z M 66.65625 46.914062 " fill-opacity="1" fill-rule="nonzero"/><path fill="#ffffff" d="M 47.019531 41.574219 L 48.878906 38.222656 L 62.386719 45.710938 L 60.527344 49.066406 Z M 47.019531 41.574219 " fill-opacity="1" fill-rule="nonzero"/><g fill="#ffffff" fill-opacity="1"><g transform="translate(95.034331, 71.253421)"><g><path d="M 28.109375 -12.328125 L 10.828125 -12.328125 L 10.828125 -17.828125 L 28.109375 -17.828125 Z M 30.546875 -24.6875 L 8.640625 -24.6875 L 8.640625 0 L 3.171875 0 L 3.171875 -27.390625 C 3.171875 -27.773438 3.238281 -28.132812 3.375 -28.46875 C 3.519531 -28.800781 3.710938 -29.09375 3.953125 -29.34375 C 4.203125 -29.601562 4.492188 -29.800781 4.828125 -29.9375 C 5.171875 -30.082031 5.535156 -30.15625 5.921875 -30.15625 L 30.546875 -30.15625 Z M 30.546875 -24.6875 "/></g></g><g transform="translate(126.828687, 71.253421)"><g><path d="M 26.03125 -7.53125 C 26.03125 -6.769531 25.894531 -5.953125 25.625 -5.078125 C 25.363281 -4.203125 24.929688 -3.390625 24.328125 -2.640625 C 23.734375 -1.890625 22.957031 -1.257812 22 -0.75 C 21.039062 -0.25 19.875 0 18.5 0 L 8.640625 0 C 7.878906 0 7.0625 -0.128906 6.1875 -0.390625 C 5.3125 -0.660156 4.5 -1.09375 3.75 -1.6875 C 3 -2.289062 2.367188 -3.070312 1.859375 -4.03125 C 1.359375 -4.988281 1.109375 -6.15625 1.109375 -7.53125 C 1.109375 -8.28125 1.238281 -9.097656 1.5 -9.984375 C 1.769531 -10.867188 2.203125 -11.6875 2.796875 -12.4375 C 3.398438 -13.1875 4.179688 -13.8125 5.140625 -14.3125 C 6.097656 -14.820312 7.265625 -15.078125 8.640625 -15.078125 L 18.5 -15.078125 L 18.5 -9.859375 L 8.640625 -9.859375 C 7.898438 -9.859375 7.328125 -9.628906 6.921875 -9.171875 C 6.515625 -8.722656 6.3125 -8.160156 6.3125 -7.484375 C 6.3125 -6.765625 6.546875 -6.207031 7.015625 -5.8125 C 7.484375 -5.414062 8.039062 -5.21875 8.6875 -5.21875 L 18.5 -5.21875 C 19.25 -5.21875 19.828125 -5.441406 20.234375 -5.890625 C 20.640625 -6.335938 20.84375 -6.894531 20.84375 -7.5625 L 20.84375 -15.203125 C 20.84375 -15.921875 20.617188 -16.488281 20.171875 -16.90625 C 19.734375 -17.320312 19.175781 -17.53125 18.5 -17.53125 L 6.5 -17.53125 L 6.5 -22.734375 L 18.5 -22.734375 C 19.257812 -22.734375 20.078125 -22.597656 20.953125 -22.328125 C 21.828125 -22.066406 22.640625 -21.632812 23.390625 -21.03125 C 24.140625 -20.4375 24.765625 -19.660156 25.265625 -18.703125 C 25.773438 -17.742188 26.03125 -16.578125 26.03125 -15.203125 Z M 26.03125 -7.53125 "/></g></g><g transform="translate(154.964167, 71.253421)"><g><path d="M 22.453125 -17.265625 L 10.15625 -17.265625 C 9.414062 -17.265625 8.851562 -17.078125 8.46875 -16.703125 C 8.09375 -16.335938 7.90625 -15.796875 7.90625 -15.078125 L 7.90625 0 L 2.4375 0 L 2.4375 -15.078125 C 2.4375 -16.015625 2.554688 -16.851562 2.796875 -17.59375 C 3.035156 -18.34375 3.351562 -19 3.75 -19.5625 C 4.15625 -20.132812 4.613281 -20.617188 5.125 -21.015625 C 5.644531 -21.410156 6.1875 -21.734375 6.75 -21.984375 C 7.320312 -22.242188 7.898438 -22.429688 8.484375 -22.546875 C 9.066406 -22.671875 9.609375 -22.734375 10.109375 -22.734375 L 22.453125 -22.734375 Z M 22.453125 -17.265625 "/></g></g><g transform="translate(178.452458, 71.253421)"><g><path d="M 22.859375 0 L 17.390625 0 L 17.390625 -15.078125 C 17.390625 -15.796875 17.195312 -16.335938 16.8125 -16.703125 C 16.4375 -17.078125 15.878906 -17.265625 15.140625 -17.265625 L 8.03125 -17.265625 L 8.03125 0 L 2.5625 0 L 2.5625 -20.015625 C 2.5625 -20.390625 2.628906 -20.742188 2.765625 -21.078125 C 2.910156 -21.410156 3.109375 -21.695312 3.359375 -21.9375 C 3.617188 -22.1875 3.914062 -22.378906 4.25 -22.515625 C 4.582031 -22.660156 4.9375 -22.734375 5.3125 -22.734375 L 15.1875 -22.734375 C 15.9375 -22.734375 16.742188 -22.597656 17.609375 -22.328125 C 18.484375 -22.066406 19.3125 -21.640625 20.09375 -21.046875 L 20.09375 -22.734375 L 27.5 -22.734375 C 28.019531 -22.734375 28.566406 -22.671875 29.140625 -22.546875 C 29.710938 -22.429688 30.28125 -22.242188 30.84375 -21.984375 C 31.414062 -21.734375 31.960938 -21.410156 32.484375 -21.015625 C 33.003906 -20.617188 33.457031 -20.132812 33.84375 -19.5625 C 34.238281 -19 34.554688 -18.34375 34.796875 -17.59375 C 35.035156 -16.851562 35.15625 -16.015625 35.15625 -15.078125 L 35.15625 0 L 29.6875 0 L 29.6875 -15.078125 C 29.6875 -15.796875 29.507812 -16.335938 29.15625 -16.703125 C 28.800781 -17.078125 28.25 -17.265625 27.5 -17.265625 L 22.578125 -17.265625 C 22.765625 -16.585938 22.859375 -15.859375 22.859375 -15.078125 Z M 22.859375 0 "/></g></g><g transform="translate(216.071572, 71.253421)"><g><path d="M 26.03125 -7.53125 C 26.03125 -6.769531 25.894531 -5.953125 25.625 -5.078125 C 25.363281 -4.203125 24.929688 -3.390625 24.328125 -2.640625 C 23.734375 -1.890625 22.957031 -1.257812 22 -0.75 C 21.039062 -0.25 19.875 0 18.5 0 L 8.640625 0 C 7.878906 0 7.0625 -0.128906 6.1875 -0.390625 C 5.3125 -0.660156 4.5 -1.09375 3.75 -1.6875 C 3 -2.289062 2.367188 -3.070312 1.859375 -4.03125 C 1.359375 -4.988281 1.109375 -6.15625 1.109375 -7.53125 C 1.109375 -8.28125 1.238281 -9.097656 1.5 -9.984375 C 1.769531 -10.867188 2.203125 -11.6875 2.796875 -12.4375 C 3.398438 -13.1875 4.179688 -13.8125 5.140625 -14.3125 C 6.097656 -14.820312 7.265625 -15.078125 8.640625 -15.078125 L 18.5 -15.078125 L 18.5 -9.859375 L 8.640625 -9.859375 C 7.898438 -9.859375 7.328125 -9.628906 6.921875 -9.171875 C 6.515625 -8.722656 6.3125 -8.160156 6.3125 -7.484375 C 6.3125 -6.765625 6.546875 -6.207031 7.015625 -5.8125 C 7.484375 -5.414062 8.039062 -5.21875 8.6875 -5.21875 L 18.5 -5.21875 C 19.25 -5.21875 19.828125 -5.441406 20.234375 -5.890625 C 20.640625 -6.335938 20.84375 -6.894531 20.84375 -7.5625 L 20.84375 -15.203125 C 20.84375 -15.921875 20.617188 -16.488281 20.171875 -16.90625 C 19.734375 -17.320312 19.175781 -17.53125 18.5 -17.53125 L 6.5 -17.53125 L 6.5 -22.734375 L 18.5 -22.734375 C 19.257812 -22.734375 20.078125 -22.597656 20.953125 -22.328125 C 21.828125 -22.066406 22.640625 -21.632812 23.390625 -21.03125 C 24.140625 -20.4375 24.765625 -19.660156 25.265625 -18.703125 C 25.773438 -17.742188 26.03125 -16.578125 26.03125 -15.203125 Z M 26.03125 -7.53125 "/></g></g><g transform="translate(244.207053, 71.253421)"><g><path d="M 27.75 0 L 22.28125 0 L 22.28125 -12.609375 C 22.28125 -13.328125 22.15625 -13.96875 21.90625 -14.53125 C 21.664062 -15.101562 21.335938 -15.59375 20.921875 -16 C 20.503906 -16.40625 20.007812 -16.71875 19.4375 -16.9375 C 18.875 -17.15625 18.257812 -17.265625 17.59375 -17.265625 L 8.03125 -17.265625 L 8.03125 0 L 2.5625 0 L 2.5625 -20.015625 C 2.5625 -20.390625 2.628906 -20.742188 2.765625 -21.078125 C 2.910156 -21.410156 3.109375 -21.695312 3.359375 -21.9375 C 3.617188 -22.1875 3.914062 -22.378906 4.25 -22.515625 C 4.582031 -22.660156 4.9375 -22.734375 5.3125 -22.734375 L 17.640625 -22.734375 C 18.328125 -22.734375 19.050781 -22.65625 19.8125 -22.5 C 20.582031 -22.34375 21.34375 -22.09375 22.09375 -21.75 C 22.84375 -21.40625 23.554688 -20.96875 24.234375 -20.4375 C 24.910156 -19.914062 25.507812 -19.28125 26.03125 -18.53125 C 26.5625 -17.78125 26.976562 -16.914062 27.28125 -15.9375 C 27.59375 -14.957031 27.75 -13.847656 27.75 -12.609375 Z M 27.75 0 "/></g></g><g transform="translate(274.192999, 71.253421)"><g><path d="M 27.5 -7.671875 C 27.5 -6.734375 27.378906 -5.890625 27.140625 -5.140625 C 26.898438 -4.390625 26.582031 -3.726562 26.1875 -3.15625 C 25.800781 -2.59375 25.347656 -2.109375 24.828125 -1.703125 C 24.304688 -1.304688 23.757812 -0.984375 23.1875 -0.734375 C 22.625 -0.484375 22.050781 -0.296875 21.46875 -0.171875 C 20.894531 -0.0546875 20.347656 0 19.828125 0 L 9.96875 0 C 9.03125 0 8.1875 -0.117188 7.4375 -0.359375 C 6.695312 -0.597656 6.039062 -0.914062 5.46875 -1.3125 C 4.90625 -1.707031 4.421875 -2.164062 4.015625 -2.6875 C 3.617188 -3.207031 3.296875 -3.75 3.046875 -4.3125 C 2.796875 -4.882812 2.609375 -5.460938 2.484375 -6.046875 C 2.367188 -6.628906 2.3125 -7.171875 2.3125 -7.671875 L 2.3125 -15.078125 C 2.3125 -16.472656 2.566406 -17.65625 3.078125 -18.625 C 3.585938 -19.601562 4.222656 -20.398438 4.984375 -21.015625 C 5.753906 -21.628906 6.585938 -22.066406 7.484375 -22.328125 C 8.378906 -22.597656 9.207031 -22.734375 9.96875 -22.734375 L 19.828125 -22.734375 L 19.828125 -17.265625 L 10.015625 -17.265625 C 9.285156 -17.265625 8.726562 -17.078125 8.34375 -16.703125 C 7.96875 -16.335938 7.78125 -15.796875 7.78125 -15.078125 L 7.78125 -7.71875 C 7.78125 -6.976562 7.960938 -6.414062 8.328125 -6.03125 C 8.703125 -5.65625 9.25 -5.46875 9.96875 -5.46875 L 19.828125 -5.46875 C 20.566406 -5.46875 21.117188 -5.65625 21.484375 -6.03125 C 21.847656 -6.414062 22.03125 -6.960938 22.03125 -7.671875 L 22.03125 -32.34375 L 27.5 -32.34375 Z M 27.5 -7.671875 "/></g></g><g transform="translate(304.347169, 71.253421)"><g><path d="M 27.015625 -15.203125 C 27.015625 -14.441406 26.878906 -13.625 26.609375 -12.75 C 26.347656 -11.875 25.921875 -11.0625 25.328125 -10.3125 C 24.734375 -9.5625 23.953125 -8.929688 22.984375 -8.421875 C 22.023438 -7.921875 20.859375 -7.671875 19.484375 -7.671875 L 9.625 -7.671875 L 9.625 -12.875 L 19.484375 -12.875 C 20.234375 -12.875 20.8125 -13.097656 21.21875 -13.546875 C 21.625 -14.003906 21.828125 -14.570312 21.828125 -15.25 C 21.828125 -15.957031 21.597656 -16.515625 21.140625 -16.921875 C 20.679688 -17.328125 20.128906 -17.53125 19.484375 -17.53125 L 9.625 -17.53125 C 8.882812 -17.53125 8.3125 -17.300781 7.90625 -16.84375 C 7.5 -16.394531 7.296875 -15.832031 7.296875 -15.15625 L 7.296875 -7.53125 C 7.296875 -6.800781 7.519531 -6.234375 7.96875 -5.828125 C 8.425781 -5.421875 8.992188 -5.21875 9.671875 -5.21875 L 19.484375 -5.21875 L 19.484375 0 L 9.625 0 C 8.875 0 8.054688 -0.128906 7.171875 -0.390625 C 6.296875 -0.660156 5.484375 -1.09375 4.734375 -1.6875 C 3.984375 -2.289062 3.359375 -3.070312 2.859375 -4.03125 C 2.359375 -4.988281 2.109375 -6.15625 2.109375 -7.53125 L 2.109375 -15.203125 C 2.109375 -15.960938 2.238281 -16.78125 2.5 -17.65625 C 2.769531 -18.53125 3.203125 -19.34375 3.796875 -20.09375 C 4.390625 -20.84375 5.164062 -21.46875 6.125 -21.96875 C 7.082031 -22.476562 8.25 -22.734375 9.625 -22.734375 L 19.484375 -22.734375 C 20.242188 -22.734375 21.0625 -22.597656 21.9375 -22.328125 C 22.8125 -22.066406 23.625 -21.632812 24.375 -21.03125 C 25.125 -20.4375 25.75 -19.660156 26.25 -18.703125 C 26.757812 -17.742188 27.015625 -16.578125 27.015625 -15.203125 Z M 27.015625 -15.203125 "/></g></g><g transform="translate(332.48265, 71.253421)"><g><path d="M 22.453125 -17.265625 L 10.15625 -17.265625 C 9.414062 -17.265625 8.851562 -17.078125 8.46875 -16.703125 C 8.09375 -16.335938 7.90625 -15.796875 7.90625 -15.078125 L 7.90625 0 L 2.4375 0 L 2.4375 -15.078125 C 2.4375 -16.015625 2.554688 -16.851562 2.796875 -17.59375 C 3.035156 -18.34375 3.351562 -19 3.75 -19.5625 C 4.15625 -20.132812 4.613281 -20.617188 5.125 -21.015625 C 5.644531 -21.410156 6.1875 -21.734375 6.75 -21.984375 C 7.320312 -22.242188 7.898438 -22.429688 8.484375 -22.546875 C 9.066406 -22.671875 9.609375 -22.734375 10.109375 -22.734375 L 22.453125 -22.734375 Z M 22.453125 -17.265625 "/></g></g><g transform="translate(355.97094, 71.253421)"><g><path d="M 24.53125 -7.671875 C 24.53125 -6.734375 24.410156 -5.890625 24.171875 -5.140625 C 23.941406 -4.390625 23.628906 -3.726562 23.234375 -3.15625 C 22.835938 -2.59375 22.378906 -2.109375 21.859375 -1.703125 C 21.347656 -1.304688 20.804688 -0.984375 20.234375 -0.734375 C 19.671875 -0.484375 19.097656 -0.296875 18.515625 -0.171875 C 17.929688 -0.0546875 17.378906 0 16.859375 0 L 2.0625 0 L 2.0625 -5.46875 L 16.828125 -5.46875 C 17.566406 -5.46875 18.125 -5.65625 18.5 -6.03125 C 18.882812 -6.414062 19.078125 -6.960938 19.078125 -7.671875 C 19.003906 -9.128906 18.265625 -9.859375 16.859375 -9.859375 L 8.390625 -9.859375 C 7.179688 -9.859375 6.15625 -10.066406 5.3125 -10.484375 C 4.476562 -10.910156 3.796875 -11.4375 3.265625 -12.0625 C 2.742188 -12.695312 2.363281 -13.378906 2.125 -14.109375 C 1.894531 -14.835938 1.78125 -15.519531 1.78125 -16.15625 C 1.78125 -17.375 2 -18.398438 2.4375 -19.234375 C 2.875 -20.066406 3.421875 -20.738281 4.078125 -21.25 C 4.734375 -21.769531 5.445312 -22.144531 6.21875 -22.375 C 6.988281 -22.613281 7.710938 -22.734375 8.390625 -22.734375 L 21.828125 -22.734375 L 21.828125 -17.265625 L 8.4375 -17.265625 C 8.15625 -17.265625 7.929688 -17.234375 7.765625 -17.171875 C 7.609375 -17.109375 7.488281 -17.023438 7.40625 -16.921875 C 7.332031 -16.816406 7.285156 -16.703125 7.265625 -16.578125 C 7.253906 -16.460938 7.25 -16.347656 7.25 -16.234375 C 7.269531 -16.003906 7.3125 -15.828125 7.375 -15.703125 C 7.445312 -15.578125 7.535156 -15.484375 7.640625 -15.421875 C 7.742188 -15.367188 7.863281 -15.335938 8 -15.328125 C 8.132812 -15.328125 8.265625 -15.328125 8.390625 -15.328125 L 16.859375 -15.328125 C 18.265625 -15.328125 19.457031 -15.070312 20.4375 -14.5625 C 21.414062 -14.0625 22.207031 -13.425781 22.8125 -12.65625 C 23.414062 -11.894531 23.851562 -11.066406 24.125 -10.171875 C 24.394531 -9.273438 24.53125 -8.441406 24.53125 -7.671875 Z M 24.53125 -7.671875 "/></g></g><g transform="translate(381.772312, 71.253421)"><g><path d="M 27.296875 -7.671875 C 27.296875 -6.734375 27.175781 -5.890625 26.9375 -5.140625 C 26.695312 -4.390625 26.378906 -3.726562 25.984375 -3.15625 C 25.597656 -2.59375 25.144531 -2.109375 24.625 -1.703125 C 24.101562 -1.304688 23.554688 -0.984375 22.984375 -0.734375 C 22.421875 -0.484375 21.847656 -0.296875 21.265625 -0.171875 C 20.679688 -0.0546875 20.132812 0 19.625 0 L 9.75 0 C 9 0 8.171875 -0.128906 7.265625 -0.390625 C 6.367188 -0.660156 5.539062 -1.097656 4.78125 -1.703125 C 4.019531 -2.316406 3.382812 -3.109375 2.875 -4.078125 C 2.363281 -5.054688 2.109375 -6.253906 2.109375 -7.671875 L 2.109375 -15.078125 C 2.109375 -16.472656 2.363281 -17.65625 2.875 -18.625 C 3.382812 -19.601562 4.019531 -20.398438 4.78125 -21.015625 C 5.539062 -21.628906 6.367188 -22.066406 7.265625 -22.328125 C 8.171875 -22.597656 9 -22.734375 9.75 -22.734375 L 19.625 -22.734375 C 21.019531 -22.734375 22.207031 -22.476562 23.1875 -21.96875 C 24.175781 -21.46875 24.96875 -20.832031 25.5625 -20.0625 C 26.164062 -19.300781 26.601562 -18.472656 26.875 -17.578125 C 27.15625 -16.679688 27.296875 -15.847656 27.296875 -15.078125 Z M 21.828125 -15.03125 C 21.828125 -15.789062 21.632812 -16.351562 21.25 -16.71875 C 20.875 -17.082031 20.332031 -17.265625 19.625 -17.265625 L 9.796875 -17.265625 C 9.066406 -17.265625 8.507812 -17.078125 8.125 -16.703125 C 7.75 -16.335938 7.5625 -15.796875 7.5625 -15.078125 L 7.5625 -7.671875 C 7.5625 -6.960938 7.75 -6.414062 8.125 -6.03125 C 8.507812 -5.65625 9.066406 -5.46875 9.796875 -5.46875 L 19.625 -5.46875 C 20.363281 -5.46875 20.914062 -5.65625 21.28125 -6.03125 C 21.644531 -6.414062 21.828125 -6.960938 21.828125 -7.671875 Z M 21.828125 -15.03125 "/></g></g><g transform="translate(411.148445, 71.253421)"><g><path d="M 27.75 0 L 22.28125 0 L 22.28125 -12.609375 C 22.28125 -13.328125 22.15625 -13.96875 21.90625 -14.53125 C 21.664062 -15.101562 21.335938 -15.59375 20.921875 -16 C 20.503906 -16.40625 20.007812 -16.71875 19.4375 -16.9375 C 18.875 -17.15625 18.257812 -17.265625 17.59375 -17.265625 L 8.03125 -17.265625 L 8.03125 0 L 2.5625 0 L 2.5625 -20.015625 C 2.5625 -20.390625 2.628906 -20.742188 2.765625 -21.078125 C 2.910156 -21.410156 3.109375 -21.695312 3.359375 -21.9375 C 3.617188 -22.1875 3.914062 -22.378906 4.25 -22.515625 C 4.582031 -22.660156 4.9375 -22.734375 5.3125 -22.734375 L 17.640625 -22.734375 C 18.328125 -22.734375 19.050781 -22.65625 19.8125 -22.5 C 20.582031 -22.34375 21.34375 -22.09375 22.09375 -21.75 C 22.84375 -21.40625 23.554688 -20.96875 24.234375 -20.4375 C 24.910156 -19.914062 25.507812 -19.28125 26.03125 -18.53125 C 26.5625 -17.78125 26.976562 -16.914062 27.28125 -15.9375 C 27.59375 -14.957031 27.75 -13.847656 27.75 -12.609375 Z M 27.75 0 "/></g></g></g></svg>